<?xml version="1.0" encoding="utf-8"?>
<!-- Generator: Adobe Illustrator 24.3.0, SVG Export Plug-In . SVG Version: 6.00 Build 0)  -->
<svg version="1.1" id="Layer_1" xmlns="http://www.w3.org/2000/svg" xmlns:xlink="http://www.w3.org/1999/xlink" x="0px" y="0px"
	 viewBox="0 0 1233.6 742.7" style="enable-background:new 0 0 1233.6 742.7;" xml:space="preserve">
<style type="text/css">
	.st0{fill:#602d91;}
</style>
<g>
	<g id="_x3C_CB_x3E__2_">
		<path class="st0" d="M616.4,293.8L428.5,108l121.4-0.3l64.8-64.5l61.6,64.2l124.8-0.3L616.4,293.8z M482.9,130.3l133.4,131.9
			l131.1-132.5l-80.6,0.2l-52.5-54.6l-55.2,54.9L482.9,130.3z"/>
		<g>
			<g>
				<rect x="614" y="263.5" transform="matrix(0.33 -0.944 0.944 0.33 154.3403 766.9033)" class="st0" width="6.9" height="22.4"/>
				<path class="st0" d="M633.8,261.9l-21.1-7.4l12.4-35.6l21.1,7.4L633.8,261.9z M653.7,205.2l-21.1-7.4l12.4-35.6l21.1,7.4
					L653.7,205.2z M673.5,148.5l-21.1-7.4l6.8-19.4l21.1,7.4L673.5,148.5z"/>
				
					<rect x="667.3" y="110.9" transform="matrix(0.3284 -0.9445 0.9445 0.3284 335.1308 715.5887)" class="st0" width="7" height="22.4"/>
			</g>
		</g>
	</g>
	<g>
		<g>
			<path class="st0" d="M80.2,603.7H103c18.7,0,28,8.5,28,25.4c0,8.3-2.7,14.3-8.1,18.1c4.9,0.8,8.8,3.4,11.6,7.8
				c2.8,4.4,4.2,9.6,4.2,15.5c0,8.7-2.7,15.3-8.2,19.8c-5.5,4.5-12.7,6.7-21.6,6.7H80.3L80.2,603.7L80.2,603.7z M96,643.8h7.1
				c8.8,0,13.2-4.5,13.2-13.5c0-9.6-4.4-14.4-13.1-14.4H96V643.8z M96,684.4h8.8c12.1,0,18.1-5.1,18.1-15.4
				c0-9.2-6.4-13.8-19.1-13.8H96V684.4z"/>
			<path class="st0" d="M255.1,683.6h28.1V697h-44v-93.3H255v79.9H255.1z"/>
			<path class="st0" d="M375.3,650.5c0-13.6,4.4-25.2,13.1-34.8c8.8-9.6,19.8-14.5,33.1-14.5s24.3,4.8,33.1,14.5
				c8.7,9.6,13.1,21.2,13.1,34.7s-4.3,25.1-13,34.7s-19.7,14.4-33.1,14.4c-13.4,0-24.5-4.8-33.2-14.3
				C379.7,675.6,375.3,664.1,375.3,650.5z M391.8,649.5c0,9.1,2.9,17.1,8.6,24.1c5.7,6.9,12.8,10.4,21.2,10.4c9,0,16.2-3.3,21.7-9.9
				c5.4-6.6,8.1-14.8,8.1-24.5c0-9.2-2.7-17-8.1-23.3c-5.4-6.3-12.7-9.5-21.8-9.5s-16.3,3.2-21.7,9.5
				C394.5,632.7,391.8,640.4,391.8,649.5z"/>
			<path class="st0" d="M612.5,622.6c-4-5.6-9.1-8.5-15.2-8.5c-3.9,0-7.2,1.2-9.8,3.5c-2.7,2.4-4,5.5-4,9.5c0,3.9,4.8,8.6,14.5,14.1
				c9.7,5.4,14.6,8.1,14.7,8.1c6.9,5.1,10.3,11.2,10.3,18.1c0,9.5-2.7,17.2-8.2,23.1s-13,8.8-22.5,8.8c-12.1,0-21.6-6-28.6-18.1
				l10-9.8c1.3,3.6,3.8,6.9,7.4,9.8c3.6,3,7.3,4.5,11.1,4.5c4.5,0,8.1-1.5,10.7-4.6c2.6-3.1,3.9-6.8,3.9-11.2c0-3.2-1-6-2.9-8.4
				s-8.5-6.1-19.8-11.1c-11.2-5-16.8-12.1-16.8-21.3c0-7.9,2.6-14.5,7.8-19.9s11.7-8.1,19.4-8.1c10.8,0,19.3,3.5,25.5,10.5
				L612.5,622.6z"/>
			<path class="st0" d="M768.3,622.6c-4-5.6-9.1-8.5-15.2-8.5c-3.9,0-7.2,1.2-9.8,3.5c-2.7,2.4-4,5.5-4,9.5c0,3.9,4.8,8.6,14.5,14.1
				c9.7,5.4,14.6,8.1,14.7,8.1c6.9,5.1,10.3,11.2,10.3,18.1c0,9.5-2.7,17.2-8.2,23.1s-13,8.8-22.5,8.8c-12.1,0-21.6-6-28.6-18.1
				l10-9.8c1.3,3.6,3.8,6.9,7.4,9.8c3.6,3,7.3,4.5,11.1,4.5c4.5,0,8.1-1.5,10.7-4.6s3.9-6.8,3.9-11.2c0-3.2-1-6-2.9-8.4
				s-8.5-6.1-19.8-11.1c-11.2-5-16.8-12.1-16.8-21.3c0-7.9,2.6-14.5,7.8-19.9c5.2-5.4,11.7-8.1,19.4-8.1c10.8,0,19.3,3.5,25.5,10.5
				L768.3,622.6z"/>
			<path class="st0" d="M874.3,650.5c0-13.6,4.4-25.2,13.1-34.8c8.8-9.6,19.8-14.5,33.1-14.5c13.3,0,24.3,4.8,33,14.5
				c8.7,9.6,13.1,21.2,13.1,34.7s-4.3,25.1-13,34.7s-19.7,14.4-33.1,14.4s-24.5-4.8-33.2-14.3C878.7,675.6,874.3,664.1,874.3,650.5z
				 M890.8,649.5c0,9.1,2.9,17.1,8.6,24.1c5.7,6.9,12.8,10.4,21.2,10.4c9,0,16.2-3.3,21.7-9.9c5.4-6.6,8.1-14.8,8.1-24.5
				c0-9.2-2.7-17-8.1-23.3s-12.7-9.5-21.8-9.5s-16.3,3.2-21.7,9.5C893.5,632.7,890.8,640.4,890.8,649.5z"/>
			<path class="st0" d="M1136.7,634.1l-23.4,64.1h-3.8l-22-64.4l-10.6,63.2h-15.8l15.7-95.8h11.7l24.3,64.1l23.2-64.1h11.8l14,95.8
				H1146L1136.7,634.1z"/>
		</g>
	</g>
	<g>
		<g>
			<path class="st0" d="M130.5,529.7c-7.6,0-15-1.4-22.2-4.2s-13.7-7.1-19.4-12.9c-5.5-5.7-9.8-12-12.7-19.1
				c-2.9-7.1-4.4-14.6-4.4-22.5c0-8,1.5-15.5,4.4-22.6s7.2-13.4,12.7-19c5.8-5.8,12.3-10.1,19.5-13c7.3-2.9,14.6-4.3,22.2-4.3
				c7.6,0,14.9,1.4,22.1,4.3c7.2,2.9,13.7,7.2,19.4,13l-19,19c-3.1-3.1-6.6-5.4-10.6-7c-3.9-1.5-7.9-2.3-12-2.3
				c-4.1,0-8,0.8-11.9,2.3s-7.4,3.9-10.5,7c-3,3.1-5.3,6.6-6.9,10.4c-1.6,3.8-2.4,7.9-2.4,12.2s0.8,8.3,2.4,12.1s3.9,7.2,6.9,10.3
				c3.1,3.1,6.6,5.4,10.5,7c3.9,1.5,7.9,2.3,11.9,2.3c4.1,0,8.1-0.8,12-2.3s7.5-3.9,10.6-7l19,19.2c-5.8,5.8-12.2,10.1-19.4,12.9
				C145.6,528.2,138.2,529.7,130.5,529.7z"/>
			<path class="st0" d="M274,412.2c8.1,0,15.7,1.5,22.8,4.6s13.4,7.3,18.7,12.6s9.5,11.5,12.6,18.6s4.6,14.8,4.6,22.9
				c0,8.1-1.5,15.7-4.6,22.9c-3.1,7.1-7.3,13.4-12.6,18.6c-5.3,5.3-11.6,9.5-18.7,12.6c-7.1,3.1-14.8,4.6-22.8,4.6
				c-8.1,0-15.7-1.5-22.9-4.6c-7.1-3.1-13.3-7.3-18.6-12.6s-9.5-11.5-12.5-18.6c-3.1-7.1-4.6-14.8-4.6-22.9c0-8.1,1.5-15.7,4.6-22.9
				c3.1-7.1,7.3-13.4,12.5-18.6c5.3-5.3,11.5-9.5,18.6-12.6C258.3,413.8,265.9,412.2,274,412.2z M274.1,502.6
				c4.4,0,8.5-0.8,12.3-2.5s7.2-3.9,10.1-6.8c2.9-2.9,5.1-6.2,6.8-10.1c1.7-3.8,2.5-7.9,2.5-12.3c0-4.4-0.8-8.5-2.5-12.3
				s-3.9-7.2-6.8-10.1c-2.9-2.9-6.2-5.1-10.1-6.8c-3.8-1.7-7.9-2.5-12.3-2.5c-4.4,0-8.5,0.8-12.3,2.5s-7.2,3.9-10.1,6.8
				c-2.9,2.9-5.1,6.2-6.8,10.1c-1.7,3.8-2.5,7.9-2.5,12.3c0,4.4,0.8,8.5,2.5,12.3s3.9,7.2,6.8,10.1c2.9,2.9,6.2,5.1,10.1,6.8
				C265.6,501.8,269.7,502.6,274.1,502.6z"/>
			<path class="st0" d="M451.8,412.4h27v117.4h-29.3l-38.4-68.5v68.5h-27V412.7h29.4l38.2,68.3L451.8,412.4L451.8,412.4z"/>
			<path class="st0" d="M587.7,529.7c-7.6,0-15-1.4-22.2-4.2s-13.7-7.1-19.4-12.9c-5.5-5.7-9.8-12-12.7-19.1S529,478.9,529,471
				c0-8,1.5-15.5,4.4-22.6s7.2-13.4,12.7-19c5.8-5.8,12.3-10.1,19.5-13c7.3-2.9,14.6-4.3,22.2-4.3c7.5,0,14.9,1.4,22.1,4.3
				c7.2,2.9,13.7,7.2,19.4,13l-19,19c-3.1-3.1-6.6-5.4-10.6-7c-3.9-1.5-7.9-2.3-12-2.3s-8,0.8-11.9,2.3s-7.4,3.9-10.5,7
				c-3,3.1-5.3,6.6-6.9,10.4c-1.6,3.8-2.4,7.9-2.4,12.2s0.8,8.3,2.4,12.1c1.6,3.8,3.9,7.2,6.9,10.3c3.1,3.1,6.6,5.4,10.5,7
				c3.9,1.5,7.9,2.3,11.9,2.3c4.1,0,8.1-0.8,12-2.3s7.5-3.9,10.6-7l19,19.2c-5.8,5.8-12.2,10.1-19.4,12.9
				C602.8,528.2,595.3,529.7,587.7,529.7z"/>
			<path class="st0" d="M716,499.4c-1.4,0.2-2.8,0.4-4.2,0.5s-2.8,0.2-4.3,0.3v29.6h-27V412.9h27c6.7,0.1,13,1.3,18.9,3.7
				c5.9,2.3,11,5.5,15.4,9.4s7.9,8.5,10.4,13.7s3.8,10.8,3.8,16.8c0,6.3-1.3,12.1-4,17.5s-6.4,10-11.2,14l25.9,41.9h-31.8L716,499.4
				z M707.5,473c2.9-0.1,5.6-0.6,8.2-1.5c2.6-0.9,4.9-2.1,6.9-3.6s3.5-3.2,4.6-5.2s1.7-4.1,1.7-6.3s-0.6-4.3-1.7-6.2
				s-2.7-3.6-4.6-5.1c-2-1.5-4.3-2.7-6.9-3.6c-2.6-0.9-5.4-1.4-8.2-1.5V473z"/>
			<path class="st0" d="M895.3,439.4H847v17.8h39.2v27H847v18.6h48.3v27h-75.4V412.5l75.4-0.2V439.4z"/>
			<path class="st0" d="M1019.8,411.9v27h-22.6v90.9h-27v-90.9h-22.4v-27H1019.8z"/>
			<path class="st0" d="M1148.1,439.4h-48.3v17.8h39.2v27h-39.2v18.6h48.3v27h-75.3V412.5l75.4-0.2L1148.1,439.4L1148.1,439.4z"/>
		</g>
	</g>
</g>
</svg>
