<svg xmlns="http://www.w3.org/2000/svg" xmlns:xlink="http://www.w3.org/1999/xlink" viewBox="0 0 277.65 129.81"><defs><style>.a{mask:url(#a);}.b{fill:#602d91;}.c{filter:url(#b);}</style><filter id="b" x="110.95" y="-8260.39" width="66.09" height="32766" filterUnits="userSpaceOnUse" color-interpolation-filters="sRGB"><feFlood flood-color="#fff" result="bg"/><feBlend in="SourceGraphic" in2="bg"/></filter><mask id="a" x="110.95" y="-8260.39" width="66.09" height="32766" maskUnits="userSpaceOnUse"><g class="c"/></mask></defs><g class="a"><path class="b" d="M118.21,42.86a10.47,10.47,0,0,0,.29-1.44c-.4,0-.9,0-1.51,0s-1.24.06-1.93.11-1.39.09-2.11.16-1.39.14-2,.23c.14-.31.27-.61.39-.91a8,8,0,0,0,.31-.9,5.77,5.77,0,0,0,.19-.9c0-.31.08-.61.11-.91l2.47.08,2.25.07,2.5,0,3.25,0,3.26,0,2.5,0,2.23-.07,2.35-.08c-.14.3-.27.6-.4.91s-.22.6-.31.9-.14.6-.19.9-.08.6-.11.91c-.51-.09-1.1-.16-1.75-.23s-1.31-.12-2-.16-1.27-.08-1.86-.11-1.08,0-1.48,0a4.26,4.26,0,0,0-.22.58c-.09.24-.17.53-.26.86l-.6,2.18L120.77,55.3q-.94,3.41-1.6,6.06T118,66.55a13,13,0,0,0-1.47-.08h-3.64a14.4,14.4,0,0,0-1.52.08Q112.2,64,113,61.36t1.76-6.06L117.62,45C117.84,44.24,118,43.52,118.21,42.86Z"/><path class="b" d="M145.09,52.86q-1.53-.06-3.06-.06c-1,0-2.06,0-3.09,0s-2.07.06-3.11.12l-.65,2.34q-.94,3.41-1.6,6.06t-1.2,5.19a13,13,0,0,0-1.47-.08h-3.64a14.4,14.4,0,0,0-1.52.08q.85-2.55,1.68-5.19t1.76-6.06l1.55-5.58c.63-2.28,1.16-4.29,1.59-6.06s.85-3.54,1.23-5.32c.45.06.93.1,1.46.15s1.13.06,1.81.06,1.28,0,1.84-.06,1.06-.09,1.53-.15c-.62,1.78-1.2,3.54-1.72,5.28s-1.1,3.74-1.73,6c.69,0,1.53,0,2.51.07l3.66,0,3.57,0,2.56-.07q.94-3.41,1.59-6t1.22-5.28c.44.06.93.1,1.46.15s1.13.06,1.8.06,1.29,0,1.84-.06,1.07-.09,1.54-.15q-.9,2.67-1.72,5.32c-.54,1.77-1.13,3.78-1.76,6.06l-1.54,5.58c-.63,2.27-1.17,4.29-1.6,6.06s-.84,3.49-1.2,5.19a13,13,0,0,0-1.47-.08h-3.65a14.55,14.55,0,0,0-1.52.08q.87-2.55,1.68-5.19c.55-1.77,1.13-3.79,1.76-6.06l.65-2.34Z"/><path class="b" d="M160.14,43.66q.66-2.65,1.23-5.32c1.21,0,2.4.07,3.57.13s2.37.08,3.58.08q3,0,5.34-.06c1.56-.05,2.62-.09,3.18-.15a9.24,9.24,0,0,0-.64,1.73c-.12.44-.2.78-.25,1s-.07.52-.1.82l-2.53-.16-2.66-.16c-.86-.06-1.64-.1-2.34-.13l-1.48,0c-.53,1.51-1,3-1.43,4.48s-.84,3-1.26,4.47c1.76,0,3.36-.07,4.79-.12s2.93-.12,4.49-.21c-.21.47-.36.83-.45,1.07a6.48,6.48,0,0,0-.26.78,5.1,5.1,0,0,0-.13.68c0,.23-.07.57-.14,1q-4.5-.37-9.08-.37c-.24.87-.49,1.75-.75,2.62s-.51,1.76-.75,2.63c-.49,1.78-.93,3.49-1.3,5.13q2.31,0,4.65-.12c1.56-.08,3.15-.22,4.77-.41-.14.3-.26.58-.35.82a9.86,9.86,0,0,0-.33,1,10.5,10.5,0,0,0-.24,1,2.86,2.86,0,0,0-.05.61q-1.08,0-2.67-.06l-4.39,0h-6.42l-1.38,0q-.47,0-.81.06.87-2.55,1.69-5.19T157,55.3l1.55-5.58C159.17,47.44,159.71,45.43,160.14,43.66Z"/></g><path class="b" d="M116.92,26a2.41,2.41,0,1,0-2.4-2.41A2.41,2.41,0,0,0,116.92,26Z"/><path class="b" d="M131.83,20.27a2.4,2.4,0,1,0-2.4-2.4A2.41,2.41,0,0,0,131.83,20.27Z"/><path class="b" d="M147.75,15.79a2.41,2.41,0,1,0-2.4-2.41A2.4,2.4,0,0,0,147.75,15.79Z"/><path class="b" d="M163.89,13.54a2.4,2.4,0,1,0-2.4-2.4A2.4,2.4,0,0,0,163.89,13.54Z"/><path class="b" d="M180.15,12.76a2.4,2.4,0,1,0-2.4-2.4A2.41,2.41,0,0,0,180.15,12.76Z"/><path class="b" d="M196.07,13.32a2.4,2.4,0,1,0-2.41-2.4A2.41,2.41,0,0,0,196.07,13.32Z"/><path class="b" d="M212.21,15.79a2.41,2.41,0,1,0-2.4-2.41A2.41,2.41,0,0,0,212.21,15.79Z"/><path class="b" d="M228,19.82a2.4,2.4,0,1,0-2.4-2.4A2.41,2.41,0,0,0,228,19.82Z"/><path class="b" d="M243.26,25.65a2.4,2.4,0,1,0-2.4-2.4A2.41,2.41,0,0,0,243.26,25.65Z"/><path class="b" d="M257.27,33.72a2.4,2.4,0,1,0-2.4-2.4A2.4,2.4,0,0,0,257.27,33.72Z"/><path class="b" d="M59.87,78.46c.5-1.89.89-3.48,1.18-4.78s.55-2.43.79-3.41a10.47,10.47,0,0,0,1.76.2,12.41,12.41,0,0,0,1.88-.2q3.09,5,6.12,9.8t6.25,9.8l1-3.58,1.06-4c.36-1.34.7-2.67,1-4s.64-2.51.92-3.61.5-2,.67-2.84a12.15,12.15,0,0,0,.28-1.6,10.46,10.46,0,0,0,1.77.2,12.41,12.41,0,0,0,1.88-.2Q85.21,74,84.29,77t-1.72,5.7c-.52,1.79-1,3.55-1.5,5.3s-1,3.6-1.5,5.58l-1.31,4.94a14.53,14.53,0,0,0-1.64-.08,13,13,0,0,0-1.6.08Q69.3,88.68,62.61,78.67c-.24.79-.48,1.59-.7,2.39s-.45,1.6-.66,2.42L60,88.26c-.44,1.65-.8,3-1.09,4.2s-.54,2.13-.72,2.93-.33,1.45-.44,2l-.24,1.22a4.94,4.94,0,0,0-1-.08h-.93c-.62,0-1.25,0-1.88.08.11-.22.38-1,.82-2.35s1-3,1.57-4.92,1.25-4,1.91-6.3S59.31,80.55,59.87,78.46Z"/><path class="b" d="M88.52,75.6q.62-2.66,1.17-5.33c.44,0,.93.1,1.46.14s1.13.06,1.8.06,1.29,0,1.84-.06,1.06-.09,1.54-.14q-.89,2.67-1.66,5.33c-.53,1.77-1.09,3.8-1.69,6.07l-1.49,5.6q-.9,3.42-1.53,6.08t-1.14,5.21a11,11,0,0,0-1.47-.08H83.7a12.25,12.25,0,0,0-1.52.08Q83,96,83.81,93.35c.52-1.77,1.09-3.8,1.69-6.08L87,81.67C87.59,79.4,88.1,77.37,88.52,75.6Z"/><path class="b" d="M103.56,74.8a9.88,9.88,0,0,0,.28-1.45c-.4,0-.9,0-1.5.05s-1.25.06-1.93.1-1.39.09-2.11.16-1.39.15-2,.23c.14-.3.27-.6.39-.91a7.91,7.91,0,0,0,.3-.9,7.32,7.32,0,0,0,.18-.91c0-.3.07-.6.1-.9l2.46.08c.74,0,1.49.05,2.25.06l2.5,0,3.25,0,3.27,0,2.5,0c.76,0,1.5,0,2.22-.06l2.35-.08c-.13.3-.26.6-.38.9a8.06,8.06,0,0,0-.3.91,7.17,7.17,0,0,0-.18.9c0,.31-.07.61-.1.91-.52-.08-1.1-.16-1.76-.23s-1.31-.12-2-.16-1.27-.08-1.86-.1-1.08-.05-1.48-.05a4.26,4.26,0,0,0-.22.58c-.08.25-.16.54-.25.87L109,77l-2.74,10.29q-.9,3.42-1.53,6.08t-1.13,5.21a11.3,11.3,0,0,0-1.48-.08H98.48a12.14,12.14,0,0,0-1.52.08q.84-2.55,1.62-5.21c.52-1.77,1.09-3.8,1.69-6.08L103,77C103.21,76.18,103.4,75.45,103.56,74.8Z"/><path class="b" d="M117.34,75.6q.61-2.66,1.17-5.33,1.8,0,3.57.12c1.17,0,2.36.08,3.58.08q3,0,5.34-.06c1.56,0,2.62-.09,3.17-.14a9,9,0,0,0-.62,1.72,10.53,10.53,0,0,0-.23,1c0,.25-.07.53-.1.83l-2.53-.17L128,73.52c-.87-.06-1.64-.1-2.34-.12s-1.19-.05-1.49-.05c-.5,1.51-1,3-1.37,4.49s-.81,3-1.21,4.49c1.76,0,3.36-.07,4.79-.12s2.93-.12,4.49-.21c-.21.47-.36.83-.45,1.07s-.17.51-.25.79a3.71,3.71,0,0,0-.12.68c0,.23-.06.57-.12,1-3-.24-6-.37-9.09-.37l-.72,2.64q-.37,1.32-.72,2.64c-.47,1.78-.89,3.5-1.25,5.14q2.31,0,4.65-.12c1.56-.08,3.15-.22,4.77-.41-.14.3-.25.57-.34.82a10.23,10.23,0,0,0-.32,1c-.11.44-.19.78-.23,1a2.89,2.89,0,0,0,0,.62c-.72,0-1.62,0-2.68-.06s-2.52,0-4.38,0h-6.42c-.61,0-1.07,0-1.38,0s-.58,0-.81.06q.84-2.55,1.63-5.21t1.69-6.08l1.48-5.6C116.41,79.4,116.92,77.37,117.34,75.6Z"/><path class="b" d="M142.62,72.28a5.33,5.33,0,0,0-3.33,1.12A4.76,4.76,0,0,0,137.43,76a2.92,2.92,0,0,0,.25,2.49,6.5,6.5,0,0,0,1.82,1.75,26.59,26.59,0,0,0,2.56,1.5,11.09,11.09,0,0,1,2.48,1.78,6.18,6.18,0,0,1,1.61,2.55,6.62,6.62,0,0,1-.11,3.85,11.52,11.52,0,0,1-1.76,3.77,12.3,12.3,0,0,1-3,2.92,13.59,13.59,0,0,1-3.87,1.86,16,16,0,0,1-4.56.63,13.19,13.19,0,0,1-3.78-.47,5.51,5.51,0,0,1-2.3-1.17c.53-1,1-1.84,1.39-2.64s.79-1.66,1.17-2.59h.77a4.62,4.62,0,0,0,.16,1.71,3.73,3.73,0,0,0,.75,1.42,3.46,3.46,0,0,0,1.41,1,5.48,5.48,0,0,0,2.09.35,5.93,5.93,0,0,0,3.91-1.23,5.75,5.75,0,0,0,1.94-3,3.1,3.1,0,0,0-.22-2.55,5.87,5.87,0,0,0-1.76-1.75,24.32,24.32,0,0,0-2.52-1.48,10.66,10.66,0,0,1-2.45-1.75,6,6,0,0,1-1.55-2.54,6.82,6.82,0,0,1,.13-3.85,11.56,11.56,0,0,1,1.75-3.79A12.17,12.17,0,0,1,136.51,72a11.78,11.78,0,0,1,3.34-1.68,11.55,11.55,0,0,1,3.61-.58,10.87,10.87,0,0,1,3.68.54,6.25,6.25,0,0,1,2.43,1.48c-.42.63-.79,1.24-1.12,1.83l-1.26,2.24h-.61Q146.22,72.28,142.62,72.28Z"/><path class="b" d="M164.39,84.82q-1.51-.06-3.06-.06c-1,0-2.05,0-3.08,0s-2.07.07-3.11.13l-.63,2.34q-.9,3.42-1.53,6.08t-1.13,5.21a11.3,11.3,0,0,0-1.48-.08h-3.64a12.14,12.14,0,0,0-1.52.08q.84-2.55,1.62-5.21c.52-1.77,1.09-3.8,1.69-6.08l1.49-5.6c.6-2.27,1.11-4.3,1.53-6.07s.8-3.55,1.17-5.33c.44,0,.93.1,1.46.14s1.13.06,1.8.06,1.29,0,1.84-.06,1.07-.09,1.54-.14q-.91,2.67-1.67,5.29t-1.66,6c.7,0,1.53,0,2.52.06s2.2,0,3.65,0,2.65,0,3.57,0,1.78,0,2.57-.06q.9-3.42,1.52-6T171,70.27c.44,0,.93.1,1.46.14s1.13.06,1.8.06,1.29,0,1.84-.06,1.06-.09,1.53-.14q-.87,2.67-1.65,5.33c-.53,1.77-1.09,3.8-1.69,6.07l-1.49,5.6q-.9,3.42-1.53,6.08t-1.14,5.21a11,11,0,0,0-1.47-.08H165a12.25,12.25,0,0,0-1.52.08q.84-2.55,1.63-5.21t1.69-6.08l.62-2.34C166.42,84.9,165.41,84.87,164.39,84.82Z"/><path class="b" d="M175.25,84.47a18.66,18.66,0,0,1,2.63-5.72,21.06,21.06,0,0,1,4.39-4.7A20.41,20.41,0,0,1,188,70.88a19.46,19.46,0,0,1,6.7-1.15,17.08,17.08,0,0,1,5.79.91,9.63,9.63,0,0,1,4.13,2.71,9,9,0,0,1,2,4.6,15.6,15.6,0,0,1-.52,6.48,18.38,18.38,0,0,1-2.68,5.77A21.39,21.39,0,0,1,199,94.87a20.49,20.49,0,0,1-5.7,3.11,20.51,20.51,0,0,1-12.33.31,9.13,9.13,0,0,1-4.21-2.59,9,9,0,0,1-2.09-4.57A16.11,16.11,0,0,1,175.25,84.47Zm24.49-.9a16.38,16.38,0,0,0,.62-4.8,8.42,8.42,0,0,0-.84-3.6,5.44,5.44,0,0,0-2.19-2.29,6.8,6.8,0,0,0-3.37-.8,8.31,8.31,0,0,0-4,1,13,13,0,0,0-3.5,2.73,18.66,18.66,0,0,0-2.79,4.06,24.27,24.27,0,0,0-1.91,5A19.47,19.47,0,0,0,181,90.4a7.81,7.81,0,0,0,.89,3.65,4.8,4.8,0,0,0,2.19,2,7.41,7.41,0,0,0,3.07.61,9.56,9.56,0,0,0,3.69-.78,11.55,11.55,0,0,0,3.53-2.39,18.11,18.11,0,0,0,3.06-4.07A24.61,24.61,0,0,0,199.74,83.57Z"/><path class="b" d="M208.22,81.67c.6-2.27,1.11-4.3,1.53-6.07s.8-3.55,1.17-5.33c.44,0,.93.1,1.46.14s1.13.06,1.8.06c.95,0,1.93,0,3-.1s2-.1,3-.1a16.71,16.71,0,0,1,4.37.43A4.45,4.45,0,0,1,226.74,72,4.74,4.74,0,0,1,228,74.34a7.3,7.3,0,0,1-.23,3.17,12.31,12.31,0,0,1-1.84,4,10.29,10.29,0,0,1-2.89,2.74,12.59,12.59,0,0,1-3.71,1.54,18.16,18.16,0,0,1-4.3.5H213c-.54,2.06-1.07,4.11-1.57,6.15s-1,4.08-1.35,6.08a11,11,0,0,0-1.47-.08h-3.65a12.25,12.25,0,0,0-1.52.08q.84-2.55,1.63-5.21c.52-1.77,1.09-3.8,1.69-6.08Zm13-3.5a8.85,8.85,0,0,0,.35-2.63,3.4,3.4,0,0,0-.48-1.71A2.34,2.34,0,0,0,220,72.9a4.13,4.13,0,0,0-1.56-.29h-1.34a2.1,2.1,0,0,0-.37,0q-.83,3-1.61,5.83t-1.54,5.75a11.73,11.73,0,0,0,2.14-.21,6.7,6.7,0,0,0,2.19-.84,7,7,0,0,0,1.94-1.84A9.25,9.25,0,0,0,221.21,78.17Z"/></svg>